<svg width="192" height="21" viewBox="0 0 192 21" fill="none" xmlns="http://www.w3.org/2000/svg">
<path d="M8.84 20.28C6.97333 20.28 5.44267 20.0187 4.248 19.496C3.072 18.9733 2.22267 18.2827 1.7 17.424C1.196 16.5467 1.01867 15.6227 1.168 14.652C1.20533 14.5027 1.28 14.372 1.392 14.26C1.52267 14.1293 1.672 14.064 1.84 14.064H5.424C5.68533 14.064 5.872 14.1107 5.984 14.204C6.096 14.2973 6.208 14.4187 6.32 14.568C6.39467 14.848 6.544 15.1187 6.768 15.38C6.992 15.6413 7.3 15.856 7.692 16.024C8.10267 16.1733 8.60667 16.248 9.204 16.248C10.2867 16.248 11.1547 16.08 11.808 15.744C12.4613 15.408 12.844 14.9507 12.956 14.372C13.068 13.9613 12.9933 13.6253 12.732 13.364C12.4893 13.084 12.0507 12.8413 11.416 12.636C10.8 12.412 9.96933 12.188 8.924 11.964C7.56133 11.6653 6.44133 11.2547 5.564 10.732C4.68667 10.1907 4.07067 9.50933 3.716 8.688C3.38 7.848 3.33333 6.84933 3.576 5.692C3.94933 3.97467 4.87333 2.62133 6.348 1.632C7.82267 0.623999 9.736 0.119999 12.088 0.119999C13.3013 0.119999 14.3747 0.287999 15.308 0.623999C16.26 0.959999 17.0533 1.408 17.688 1.968C18.3227 2.528 18.78 3.12533 19.06 3.76C19.34 4.376 19.4333 4.98267 19.34 5.58C19.3213 5.72933 19.2467 5.86933 19.116 6C18.9853 6.112 18.836 6.168 18.668 6.168H14.916C14.7293 6.168 14.5613 6.13067 14.412 6.056C14.2813 5.98133 14.1693 5.86 14.076 5.692C14.076 5.28133 13.8613 4.92667 13.432 4.628C13.0027 4.31067 12.4333 4.152 11.724 4.152C10.9213 4.152 10.2493 4.30133 9.708 4.6C9.16667 4.88 8.83067 5.31867 8.7 5.916C8.60667 6.28933 8.65333 6.616 8.84 6.896C9.04533 7.176 9.41867 7.41867 9.96 7.624C10.52 7.82933 11.2853 8.044 12.256 8.268C13.8987 8.58533 15.1867 9.01467 16.12 9.556C17.0533 10.0787 17.6787 10.7413 17.996 11.544C18.332 12.3467 18.3787 13.3267 18.136 14.484C17.7253 16.388 16.7267 17.8347 15.14 18.824C13.572 19.7947 11.472 20.28 8.84 20.28ZM28.8351 20.28C27.6404 20.28 26.5391 20.1307 25.5311 19.832C24.5417 19.5147 23.7017 19.0387 23.0111 18.404C22.3391 17.7693 21.8817 16.9667 21.6391 15.996C21.3964 15.0253 21.4151 13.868 21.6951 12.524L24.1031 1.1C24.1404 0.894666 24.2431 0.726666 24.4111 0.595999C24.5791 0.465332 24.7657 0.399999 24.9711 0.399999H28.5831C28.7884 0.399999 28.9377 0.465332 29.0311 0.595999C29.1431 0.726666 29.1804 0.894666 29.1431 1.1L26.7071 12.496C26.4457 13.7093 26.5111 14.624 26.9031 15.24C27.2951 15.8373 28.0604 16.136 29.1991 16.136C30.3191 16.136 31.2337 15.8373 31.9431 15.24C32.6524 14.624 33.1377 13.7093 33.3991 12.496L35.8351 1.1C35.8724 0.894666 35.9751 0.726666 36.1431 0.595999C36.3111 0.465332 36.4884 0.399999 36.6751 0.399999H40.2871C40.4924 0.399999 40.6417 0.465332 40.7351 0.595999C40.8471 0.726666 40.8844 0.894666 40.8471 1.1L38.4391 12.524C37.8604 15.1933 36.7964 17.1533 35.2471 18.404C33.7164 19.6547 31.5791 20.28 28.8351 20.28ZM41.8441 20C41.6575 20 41.5081 19.9347 41.3961 19.804C41.2841 19.6733 41.2468 19.5053 41.2841 19.3L45.1481 1.1C45.1855 0.894666 45.2881 0.726666 45.4561 0.595999C45.6241 0.465332 45.8015 0.399999 45.9881 0.399999H53.4361C54.5748 0.399999 55.6015 0.530665 56.5161 0.791999C57.4495 1.05333 58.2241 1.45467 58.8401 1.996C59.4561 2.53733 59.8855 3.21867 60.1281 4.04C60.3708 4.84267 60.3801 5.78533 60.1561 6.868C59.6895 9.01467 58.7375 10.6013 57.3001 11.628C55.8815 12.6547 53.9681 13.168 51.5601 13.168H47.7801L46.4921 19.3C46.4548 19.5053 46.3521 19.6733 46.1841 19.804C46.0348 19.9347 45.8575 20 45.6521 20H41.8441ZM48.5081 9.304H51.7281C52.4935 9.304 53.1748 9.09867 53.7721 8.688C54.3881 8.27733 54.7895 7.652 54.9761 6.812C55.0695 6.32667 55.0881 5.89733 55.0321 5.524C54.9761 5.15067 54.7801 4.852 54.4441 4.628C54.1268 4.404 53.6321 4.292 52.9601 4.292H49.6001L48.5081 9.304ZM61.326 20C61.1393 20 60.99 19.9347 60.878 19.804C60.766 19.6733 60.7287 19.5053 60.766 19.3L64.63 1.1C64.6673 0.894666 64.77 0.726666 64.938 0.595999C65.106 0.465332 65.2833 0.399999 65.47 0.399999H78.546C78.7513 0.399999 78.9007 0.465332 78.994 0.595999C79.106 0.726666 79.1433 0.894666 79.106 1.1L78.574 3.732C78.5367 3.93733 78.434 4.10533 78.266 4.236C78.098 4.36667 77.9113 4.432 77.706 4.432H68.774L67.962 8.212H76.25C76.4553 8.212 76.614 8.28667 76.726 8.436C76.838 8.56667 76.8753 8.73467 76.838 8.94L76.306 11.376C76.2687 11.5627 76.166 11.7307 75.998 11.88C75.8487 12.0107 75.6713 12.076 75.466 12.076H67.15L66.338 15.968H75.466C75.6713 15.968 75.8207 16.0333 75.914 16.164C76.026 16.2947 76.0633 16.4627 76.026 16.668L75.466 19.3C75.4287 19.5053 75.326 19.6733 75.158 19.804C75.0087 19.9347 74.8313 20 74.626 20H61.326ZM80.1335 20C79.9281 20 79.7695 19.9347 79.6575 19.804C79.5641 19.6733 79.5361 19.5053 79.5735 19.3L83.4375 1.1C83.4748 0.894666 83.5775 0.726666 83.7455 0.595999C83.9135 0.465332 84.1001 0.399999 84.3055 0.399999H91.9215C94.3295 0.399999 96.1028 0.959999 97.2415 2.08C98.3988 3.18133 98.7628 4.74933 98.3335 6.784C98.0535 8.10933 97.4935 9.22933 96.6535 10.144C95.8321 11.0587 94.8521 11.7493 93.7135 12.216L96.0935 19.104C96.1121 19.16 96.1215 19.2067 96.1215 19.244C96.1215 19.2813 96.1121 19.3373 96.0935 19.412C96.0748 19.5613 95.9908 19.7013 95.8415 19.832C95.6921 19.944 95.5335 20 95.3655 20H91.6695C91.3148 20 91.0721 19.916 90.9415 19.748C90.8295 19.5613 90.7455 19.3933 90.6895 19.244L88.8135 13.084H85.9295L84.6135 19.3C84.5761 19.5053 84.4735 19.6733 84.3055 19.804C84.1375 19.9347 83.9508 20 83.7455 20H80.1335ZM86.7695 9.136H90.0175C90.8948 9.136 91.5948 8.92133 92.1175 8.492C92.6401 8.06267 92.9855 7.47467 93.1535 6.728C93.3028 6 93.2095 5.412 92.8735 4.964C92.5561 4.516 91.9401 4.292 91.0255 4.292H87.8055L86.7695 9.136ZM107.361 20.28C106.092 20.28 104.944 20.1213 103.917 19.804C102.909 19.4867 102.069 19.0107 101.397 18.376C100.725 17.7227 100.258 16.9293 99.9968 15.996C99.7355 15.044 99.7075 13.9427 99.9128 12.692C100.044 11.9267 100.202 11.1053 100.389 10.228C100.594 9.35067 100.79 8.51067 100.977 7.708C101.388 6.084 102.022 4.712 102.881 3.592C103.74 2.45333 104.822 1.59467 106.129 1.016C107.454 0.418666 109.013 0.119999 110.805 0.119999C112 0.119999 113.11 0.269333 114.137 0.568C115.164 0.866666 116.032 1.31467 116.741 1.912C117.469 2.49067 117.992 3.2 118.309 4.04C118.645 4.86133 118.71 5.804 118.505 6.868C118.468 7.036 118.384 7.176 118.253 7.288C118.141 7.4 118.001 7.456 117.833 7.456H114.025C113.782 7.456 113.596 7.40933 113.465 7.316C113.353 7.204 113.278 7.008 113.241 6.728C113.26 5.75733 113.008 5.08533 112.485 4.712C111.962 4.33867 111.272 4.152 110.413 4.152C109.386 4.152 108.5 4.44133 107.753 5.02C107.006 5.58 106.474 6.52267 106.157 7.848C105.765 9.37867 105.429 10.9467 105.149 12.552C104.906 13.8773 105.018 14.8293 105.485 15.408C105.952 15.968 106.698 16.248 107.725 16.248C108.584 16.248 109.358 16.0613 110.049 15.688C110.74 15.3147 111.309 14.6427 111.757 13.672C111.906 13.392 112.056 13.2053 112.205 13.112C112.354 13 112.55 12.944 112.793 12.944H116.601C116.769 12.944 116.9 13 116.993 13.112C117.086 13.224 117.114 13.364 117.077 13.532C116.816 14.5773 116.405 15.52 115.845 16.36C115.304 17.1813 114.613 17.8907 113.773 18.488C112.952 19.0667 112.009 19.5147 110.945 19.832C109.881 20.1307 108.686 20.28 107.361 20.28ZM119.854 20C119.667 20 119.518 19.9347 119.406 19.804C119.294 19.6733 119.256 19.5053 119.294 19.3L123.158 1.1C123.195 0.894666 123.298 0.726666 123.466 0.595999C123.634 0.465332 123.811 0.399999 123.998 0.399999H127.61C127.815 0.399999 127.974 0.465332 128.086 0.595999C128.198 0.726666 128.235 0.894666 128.198 1.1L126.742 7.848H133.658L135.086 1.1C135.123 0.894666 135.216 0.726666 135.366 0.595999C135.534 0.465332 135.72 0.399999 135.926 0.399999H139.538C139.743 0.399999 139.902 0.465332 140.014 0.595999C140.126 0.726666 140.163 0.894666 140.126 1.1L136.234 19.3C136.196 19.5053 136.094 19.6733 135.926 19.804C135.776 19.9347 135.599 20 135.394 20H131.782C131.576 20 131.418 19.9347 131.306 19.804C131.212 19.6733 131.184 19.5053 131.222 19.3L132.706 12.328H125.818L124.306 19.3C124.268 19.5053 124.166 19.6733 123.998 19.804C123.848 19.9347 123.671 20 123.466 20H119.854ZM139.513 20C139.289 20 139.13 19.9067 139.037 19.72C138.944 19.5333 138.953 19.3467 139.065 19.16L149.453 1.184C149.565 0.978666 149.724 0.801332 149.929 0.651999C150.134 0.483999 150.396 0.399999 150.713 0.399999H155.025C155.342 0.399999 155.566 0.483999 155.697 0.651999C155.846 0.801332 155.93 0.978666 155.949 1.184L158.693 19.16C158.749 19.4213 158.702 19.6267 158.553 19.776C158.404 19.9253 158.236 20 158.049 20H154.661C154.381 20 154.176 19.9347 154.045 19.804C153.933 19.6733 153.858 19.524 153.821 19.356L153.345 16.556H145.869L144.189 19.412C144.096 19.5427 143.965 19.6733 143.797 19.804C143.648 19.9347 143.433 20 143.153 20H139.513ZM147.857 12.524H153.065L152.029 5.132L147.857 12.524ZM161.989 20C161.784 20 161.625 19.9347 161.513 19.804C161.401 19.6733 161.364 19.5053 161.401 19.3L165.293 1.1C165.331 0.894666 165.433 0.726666 165.601 0.595999C165.769 0.465332 165.947 0.399999 166.133 0.399999H169.913C170.1 0.399999 170.249 0.465332 170.361 0.595999C170.473 0.726666 170.511 0.894666 170.473 1.1L166.581 19.3C166.544 19.5053 166.441 19.6733 166.273 19.804C166.124 19.9347 165.956 20 165.769 20H161.989ZM171.627 20C171.441 20 171.291 19.9347 171.179 19.804C171.067 19.6733 171.03 19.5053 171.067 19.3L174.931 1.1C174.969 0.894666 175.062 0.726666 175.211 0.595999C175.379 0.465332 175.566 0.399999 175.771 0.399999H178.739C179.038 0.399999 179.243 0.465332 179.355 0.595999C179.467 0.726666 179.542 0.838665 179.579 0.931998L184.143 11.768L186.411 1.1C186.449 0.894666 186.551 0.726666 186.719 0.595999C186.887 0.465332 187.065 0.399999 187.251 0.399999H190.611C190.817 0.399999 190.966 0.465332 191.059 0.595999C191.171 0.726666 191.209 0.894666 191.171 1.1L187.307 19.3C187.27 19.4867 187.167 19.6547 186.999 19.804C186.85 19.9347 186.673 20 186.467 20H183.499C183.201 20 182.995 19.9347 182.883 19.804C182.771 19.6547 182.697 19.5427 182.659 19.468L178.039 9.024L175.827 19.3C175.79 19.5053 175.687 19.6733 175.519 19.804C175.37 19.9347 175.193 20 174.987 20H171.627Z" fill="#FF0420"/>
</svg>
